<?xml version="1.0" standalone="no"?>
<!DOCTYPE svg PUBLIC "-//W3C//DTD SVG 20010904//EN"
 "http://www.w3.org/TR/2001/REC-SVG-20010904/DTD/svg10.dtd">
<svg version="1.0" xmlns="http://www.w3.org/2000/svg"
 width="868.000000pt" height="868.000000pt" viewBox="0 0 868.000000 868.000000"
 preserveAspectRatio="xMidYMid meet">
<metadata>
Created by potrace 1.11, written by Peter Selinger 2001-2013
</metadata>
<g transform="translate(0.000000,868.000000) scale(0.100000,-0.100000)"
fill="#000000" stroke="none">
<path d="M4859 6495 c0 -14 -1 -46 -2 -72 l-1 -48 105 0 c60 -1 104 -5 104
-10 -1 -39 -41 -205 -49 -206 -140 -7 -254 -16 -293 -23 -10 -2 -40 -7 -68
-10 -218 -30 -508 -125 -735 -244 -103 -53 -305 -182 -345 -219 -11 -11 -28
-24 -37 -29 -27 -15 -147 -124 -231 -209 -149 -151 -283 -321 -412 -525 -83
-132 -230 -431 -281 -572 l-39 -107 -40 -6 c-22 -2 -74 -7 -117 -10 -93 -6
-122 -16 -144 -50 -32 -49 11 -108 86 -119 20 -3 112 -9 205 -13 221 -10 3984
-10 4178 0 243 13 278 21 297 66 29 72 -29 116 -160 120 -13 1 -15 25 -16 149
0 147 -7 238 -24 342 -5 30 -11 69 -13 85 -10 65 -47 205 -82 305 -215 618
-708 992 -1395 1056 -36 3 -81 7 -100 9 -19 2 -43 4 -52 4 -30 1 -20 38 20 78
134 132 141 138 180 138 l37 0 0 70 0 70 -287 3 -288 2 -1 -25z m326 -527 c37
-40 170 -187 205 -228 17 -19 149 -167 165 -184 6 -6 85 -94 175 -196 91 -102
170 -189 176 -195 5 -5 46 -50 90 -100 43 -49 88 -99 99 -111 11 -12 52 -57
90 -100 39 -43 93 -103 120 -134 28 -31 79 -89 115 -129 36 -41 76 -85 90
-100 14 -14 59 -64 100 -111 41 -47 83 -94 93 -104 9 -11 17 -28 17 -37 0 -22
-30 -26 -125 -18 -38 4 -923 6 -1966 5 -1828 -1 -1896 0 -1891 17 3 10 28 36
56 57 41 31 1093 849 1201 934 163 129 957 745 980 760 25 17 44 21 100 19 69
-2 71 -3 110 -45z"/>
<path d="M0 5904 l0 -74 1615 0 1615 1 0 73 0 74 -1615 0 -1615 0 0 -74z"/>
<path d="M290 5343 l0 -73 1179 0 1179 0 1 70 c0 39 -3 71 -7 71 -4 1 -535 2
-1179 3 l-1173 1 0 -72z"/>
<path d="M588 4872 l-48 -3 0 -70 0 -69 908 0 908 0 0 70 c0 63 -2 70 -21 71
-79 2 -1710 3 -1747 1z"/>
<path d="M696 3545 c-161 -65 -241 -172 -281 -375 -5 -23 -74 -323 -101 -438
-13 -56 -27 -118 -30 -138 -5 -34 -4 -35 22 -32 26 3 28 8 56 128 15 69 30
134 32 145 3 11 18 79 35 150 17 72 39 163 47 204 20 92 45 152 85 203 105
132 307 166 405 69 78 -78 83 -122 35 -322 -17 -75 -33 -145 -36 -155 -2 -11
-15 -67 -29 -127 -14 -59 -28 -118 -30 -130 -2 -12 -11 -51 -20 -87 -20 -84
-21 -80 14 -80 17 0 30 3 30 7 0 3 25 114 56 247 31 132 58 249 60 261 13 67
54 217 68 247 48 100 185 189 299 193 95 4 148 -23 192 -100 36 -62 38 -112
10 -238 -40 -184 -134 -591 -140 -604 -3 -9 5 -13 24 -13 26 0 29 5 45 63 17
64 84 353 92 397 3 14 12 51 20 82 46 182 48 251 8 335 -56 117 -171 159 -327
118 -85 -22 -134 -51 -198 -114 l-57 -57 -11 37 c-14 46 -77 111 -130 131 -61
24 -176 21 -245 -7z"/>
<path d="M2696 3532 c-3 -5 -7 -19 -10 -33 -2 -13 -21 -94 -41 -179 -20 -85
-38 -166 -41 -180 -12 -62 -12 -62 -68 -16 -160 130 -415 59 -562 -157 -59
-88 -80 -226 -45 -303 76 -168 297 -193 499 -56 72 50 137 127 151 180 15 58
103 432 112 479 4 23 17 79 29 125 35 140 35 148 6 148 -14 0 -27 -4 -30 -8z
m-264 -415 c19 -8 51 -29 71 -46 35 -31 37 -32 61 -16 l25 16 -15 -58 c-8 -32
-21 -91 -30 -132 -21 -98 -35 -129 -80 -175 -112 -116 -280 -165 -383 -111
-70 36 -119 139 -107 224 17 122 146 265 279 307 49 15 130 11 179 -9z"/>
<path d="M4535 3528 c-4 -15 -23 -102 -30 -136 -2 -13 -7 -32 -10 -42 -3 -10
-8 -27 -10 -37 -25 -118 -161 -705 -171 -735 -4 -15 0 -18 24 -18 27 0 31 4
42 48 6 26 14 56 16 67 2 11 7 34 11 50 4 17 7 32 8 35 1 3 9 41 19 85 10 44
28 96 41 115 38 60 117 129 185 163 55 27 75 32 135 31 170 -1 233 -104 185
-306 -12 -51 -23 -100 -25 -108 -2 -8 -12 -52 -23 -97 l-19 -83 28 0 c29 0 36
13 53 100 3 14 15 68 27 120 33 144 35 161 32 210 -14 227 -270 294 -494 131
-70 -52 -86 -60 -73 -40 3 6 30 112 58 235 l53 224 -29 0 c-16 0 -30 -6 -33
-12z"/>
<path d="M6436 3518 c-3 -12 -17 -73 -31 -134 -13 -61 -27 -117 -29 -125 -3
-8 -8 -25 -10 -39 -6 -30 1 -1 -80 -349 -36 -156 -66 -290 -66 -298 0 -10 9
-13 28 -11 25 3 28 8 43 78 41 184 64 280 69 280 4 0 250 -203 325 -268 17
-15 54 -46 82 -69 l50 -42 22 20 c11 11 21 23 20 27 0 4 -54 51 -119 106 -65
54 -127 106 -137 115 -10 9 -30 25 -44 36 -14 11 -26 24 -27 29 -1 5 28 10 65
12 214 11 367 133 401 321 20 112 -5 202 -74 263 -66 57 -92 63 -295 68 l-186
4 -7 -24z m361 -43 c102 -31 159 -114 150 -220 -13 -160 -102 -266 -250 -299
-35 -9 -121 -15 -200 -16 -129 -1 -138 1 -134 17 3 10 31 128 62 263 31 135
58 251 60 258 6 17 252 15 312 -3z"/>
<path d="M5236 3308 c-15 -62 -29 -122 -31 -133 -14 -61 -68 -294 -73 -315
-13 -51 -5 -158 13 -187 29 -47 68 -84 110 -106 33 -18 57 -22 140 -22 92 0
105 3 165 31 36 17 83 47 105 67 37 33 39 37 24 52 -15 16 -21 14 -78 -28 -77
-57 -117 -71 -211 -71 -65 -1 -82 3 -122 27 -59 34 -98 97 -98 155 0 23 10 84
21 135 12 50 27 117 33 147 l12 55 134 5 c131 5 135 6 138 28 3 22 3 22 -128
22 -120 0 -131 1 -126 18 3 9 14 58 25 108 11 50 23 98 27 107 5 14 0 17 -24
17 l-30 0 -26 -112z"/>
<path d="M1837 3273 c-4 -3 -7 -15 -7 -25 0 -13 8 -18 29 -18 23 0 30 5 33 25
5 22 2 25 -22 25 -15 0 -30 -3 -33 -7z"/>
<path d="M3577 3273 c-4 -3 -7 -15 -7 -25 0 -13 8 -18 29 -18 23 0 30 5 33 25
5 22 2 25 -22 25 -15 0 -30 -3 -33 -7z"/>
<path d="M3015 3203 c-27 -7 -117 -45 -130 -55 -5 -5 -33 -26 -62 -49 l-52
-40 15 46 c20 56 13 79 -18 69 -29 -8 -26 -4 -33 -43 -3 -18 -15 -72 -26 -119
-11 -48 -23 -98 -25 -112 -3 -14 -10 -43 -15 -65 -5 -22 -12 -51 -15 -65 -3
-14 -14 -59 -25 -102 -25 -100 -25 -108 6 -108 19 0 26 7 31 28 3 15 17 70 29
122 13 52 29 122 35 155 14 70 49 124 120 188 102 92 212 123 319 91 75 -22
121 -89 121 -175 0 -39 -74 -381 -87 -401 -3 -5 10 -8 28 -6 l33 3 38 160 c41
173 52 276 35 332 -16 52 -80 119 -130 136 -42 14 -153 20 -192 10z"/>
<path d="M3906 3181 c-153 -61 -278 -239 -277 -395 0 -244 332 -332 535 -142
l28 27 -7 -37 c-17 -93 -98 -195 -195 -248 -97 -53 -218 -37 -308 40 l-42 35
-21 -20 -22 -20 38 -37 c108 -105 278 -110 422 -14 105 71 170 164 188 272 3
18 11 51 16 73 6 22 13 49 15 60 2 11 6 32 10 48 5 25 3 27 -24 27 -24 0 -31
-5 -37 -27 -19 -76 -96 -162 -184 -205 -64 -31 -179 -31 -236 -1 -104 55 -140
157 -98 279 74 220 319 330 475 214 28 -20 31 -21 54 -5 25 16 25 17 8 36 -9
10 -40 30 -68 43 -73 35 -178 34 -270 -3z"/>
<path d="M8055 3193 c-64 -23 -133 -63 -175 -103 l-33 -30 7 30 c3 16 9 43 12
59 6 27 4 29 -20 27 -32 -4 -30 0 -44 -61 -6 -27 -36 -160 -67 -295 -31 -135
-59 -248 -62 -252 -2 -5 9 -8 25 -8 34 0 34 0 92 254 l32 139 72 71 c86 86
164 129 243 132 107 4 179 -34 208 -110 22 -56 17 -119 -20 -271 -34 -141 -35
-144 -42 -183 -6 -32 -5 -33 22 -30 29 3 29 4 70 183 55 238 52 308 -18 397
-47 59 -204 86 -302 51z"/>
<path d="M1815 3178 c-6 -18 -32 -131 -50 -213 -8 -38 -26 -119 -41 -180 -59
-255 -56 -225 -24 -225 29 0 35 9 45 62 2 13 14 64 25 113 12 50 28 118 36
153 8 34 21 90 29 125 18 72 24 99 32 145 5 29 4 32 -21 32 -15 0 -29 -6 -31
-12z"/>
<path d="M3559 3186 c0 0 -33 -140 -73 -311 l-73 -310 25 -3 c13 -2 26 -1 29
2 6 6 143 593 143 612 0 8 -46 18 -51 10z"/>
<path d="M7066 3162 c-3 -6 -37 -150 -62 -267 -28 -130 -27 -180 6 -244 44
-87 115 -121 242 -118 95 2 160 28 249 99 l51 40 -7 -33 c-4 -19 -9 -44 -12
-56 -4 -20 -1 -23 24 -23 29 0 29 1 52 100 12 55 22 102 23 105 0 2 22 95 48
205 l47 201 -30 -3 -30 -3 -42 -182 c-23 -100 -50 -194 -59 -208 -34 -51 -122
-127 -185 -158 -144 -70 -299 -27 -331 92 -14 55 -9 103 29 266 47 197 47 195
17 195 -14 0 -27 -3 -30 -8z"/>
</g>
</svg>
