<?xml version="1.0" standalone="no"?>
<!DOCTYPE svg PUBLIC "-//W3C//DTD SVG 20010904//EN"
 "http://www.w3.org/TR/2001/REC-SVG-20010904/DTD/svg10.dtd">
<svg version="1.0" xmlns="http://www.w3.org/2000/svg"
 width="400.000000pt" height="400.000000pt" viewBox="0 0 400.000000 400.000000"
 preserveAspectRatio="xMidYMid meet">
<metadata>
Created by potrace 1.11, written by Peter Selinger 2001-2013
</metadata>
<g transform="translate(0.000000,400.000000) scale(0.100000,-0.100000)"
fill="#000000" stroke="none">
<path d="M1921 3119 c-130 -26 -240 -139 -258 -265 -3 -25 -11 -47 -17 -49
-218 -68 -367 -124 -386 -144 -3 -4 -18 -13 -35 -21 -37 -18 -144 -91 -210
-144 -209 -166 -389 -407 -486 -651 -17 -44 -33 -82 -35 -84 -1 -1 -13 4 -26
13 -31 22 -86 20 -125 -4 -35 -21 -93 -94 -93 -117 0 -7 -3 -13 -7 -13 -5 0
-6 24 -5 54 3 45 0 57 -19 75 -44 40 -124 18 -183 -51 -67 -78 -35 -117 40
-48 64 59 80 52 77 -33 -1 -37 -12 -122 -23 -189 -31 -189 -25 -229 34 -214
25 6 38 44 51 149 8 66 52 203 82 255 25 41 66 72 98 72 37 0 38 -40 6 -228
-17 -99 -31 -192 -31 -206 0 -22 -4 -26 -29 -26 -16 0 -41 -4 -55 -10 -25 -9
-93 -68 -88 -76 1 -2 1 -6 1 -9 -1 -3 -3 -9 -4 -15 -1 -5 -4 -13 -5 -17 -3
-10 -1 -74 3 -93 6 -36 47 -88 80 -103 32 -16 165 -17 1728 -17 1630 0 1694 0
1728 18 52 27 72 68 75 154 2 64 -1 77 -22 106 -14 18 -38 40 -53 48 l-28 14
18 52 c27 78 52 126 69 133 12 5 13 -4 7 -57 -4 -35 -7 -74 -6 -88 1 -29 34
-60 62 -60 56 0 149 73 149 116 0 39 -19 37 -67 -7 -41 -38 -47 -40 -58 -25
-10 13 -10 30 2 84 7 37 13 83 11 102 -2 29 -7 36 -28 39 -38 5 -82 -24 -119
-79 -19 -28 -35 -50 -36 -50 -1 0 4 26 11 57 15 64 12 73 -21 73 -35 0 -53
-34 -66 -125 -11 -76 -22 -105 -39 -105 -4 0 -7 12 -7 28 0 15 -3 34 -7 44 -4
9 -3 42 3 74 14 75 14 84 -3 84 -9 0 -17 16 -21 43 -11 64 -12 70 -24 100 -6
15 -9 27 -6 27 2 0 -14 44 -37 98 -22 53 -41 102 -42 108 -1 7 -7 18 -13 25
-6 8 -23 39 -38 69 -60 119 -149 238 -273 363 -101 102 -193 176 -309 245 -80
48 -250 128 -289 135 -10 2 -26 7 -35 11 -9 4 -53 17 -99 29 l-83 22 -13 53
c-17 65 -36 102 -76 148 -28 32 -94 82 -108 81 -3 0 -14 5 -26 11 -30 16 -111
21 -163 11z m134 -83 c29 -7 88 -46 113 -76 22 -25 53 -100 47 -110 -4 -6 -95
-10 -236 -10 l-229 0 0 23 c0 35 54 113 99 143 64 42 118 50 206 30z m-181
-574 c3 -5 -25 -14 -62 -22 -71 -14 -168 -47 -233 -80 -21 -11 -39 -17 -39
-13 0 5 -4 3 -8 -3 -4 -5 -37 -27 -73 -47 -63 -35 -200 -148 -265 -218 -54
-59 -126 -171 -173 -269 -25 -52 -46 -101 -47 -108 -4 -22 -11 -25 -37 -16
l-25 9 24 84 c29 100 78 200 140 287 48 68 211 227 224 219 4 -3 10 2 13 10 6
14 86 61 100 57 4 -1 7 2 7 7 0 8 21 17 44 19 5 0 12 5 15 11 22 35 378 101
395 73z m-941 -903 c-7 -24 -33 -25 -33 -1 0 23 8 32 25 26 7 -3 11 -14 8 -25z"/>
</g>
</svg>
